<svg id="Layer_1" data-name="Layer 1" xmlns="http://www.w3.org/2000/svg" viewBox="0 0 1280 646.06"><defs><style>.cls-1,.cls-2,.cls-3,.cls-4{fill:none;}.cls-1,.cls-2,.cls-3,.cls-4,.cls-5{stroke:#fff;}.cls-1{stroke-linecap:round;stroke-linejoin:round;}.cls-1,.cls-2,.cls-4{stroke-width:5.4px;}.cls-2,.cls-3,.cls-4,.cls-5{stroke-miterlimit:10;}.cls-3{stroke-width:4.86px;}.cls-4{stroke-linecap:square;}.cls-5{fill:#fff;}</style></defs><path class="cls-1" d="M833.26,194.57a.89.89,0,0,1,.14.52q.47,129.72.91,259.43"/><path class="cls-2" d="M370.15,457.72l-1.39-.19a1,1,0,0,1-.87-1q.89-130.14,1.75-260.27a1.16,1.16,0,0,1,.15-.51,1.06,1.06,0,0,1,.37-.36L603.57,67.73Q718.23,131,832.89,194.21a1.16,1.16,0,0,1,.37.36"/><path class="cls-3" d="M834.31,454.52l-1.64.24L603,489.65,370.15,457.72"/><path class="cls-1" d="M784.92,333.47q24.71,60.52,49.39,121"/><path class="cls-3" d="M603.57,67.73C651.3,124.7,699,183,746.76,240q19.08,46.77,38.16,93.52"/><path class="cls-1" d="M464.8,241.21c46.26-57.38,92.51-116.09,138.77-173.48"/><path class="cls-3" d="M746.76,240q-141,.63-282,1.26"/><line class="cls-2" x1="602.6" y1="488.07" x2="602.61" y2="485.06"/><path class="cls-2" d="M784.92,333.47Q767,288,749.13,242.57l84.13-48,.14-.07"/><path class="cls-3" d="M832.67,454.76q-23.86-60.64-47.75-121.29"/><path class="cls-2" d="M369.65,195.68l.14.07q47.1,23.55,94.19,47.12l.19.09-94,214.76-.25.55L602.84,593.86,832.9,455.33l-.23-.57"/><path class="cls-4" d="M602.78,484.25l-.18,109.6Z"/><path class="cls-5" d="M474.54,241.52,603.07,466.78,603,489.65l-6-.82L459,248.62l3.18-7.39Z"/><path class="cls-5" d="M603.07,466.78Q670,353.38,737,240l10.17.84,3.5,8.7Q680,369.14,609.43,488.75l-7.07.81Q602.71,478.18,603.07,466.78Z"/></svg>